<mxfile host="Electron" modified="2023-07-24T13:08:03.811Z" agent="Mozilla/5.0 (Windows NT 10.0; Win64; x64) AppleWebKit/537.36 (KHTML, like Gecko) draw.io/21.5.0 Chrome/112.0.5615.204 Electron/24.5.1 Safari/537.36" etag="FrERUqzTCeGqHXVCIZMz" version="21.5.0" type="device">
  <diagram name="第 1 页" id="rs-sukUCXtvCadHAMDVi">
    <mxGraphModel dx="1418" dy="828" grid="1" gridSize="10" guides="1" tooltips="1" connect="1" arrows="1" fold="1" page="1" pageScale="1" pageWidth="2339" pageHeight="3300" math="1" shadow="0">
      <root>
        <mxCell id="0" />
        <mxCell id="1" parent="0" />
        <mxCell id="hFO19jDDCzYTC2dBVx3V-1" value="Actor" style="shape=umlActor;verticalLabelPosition=bottom;verticalAlign=top;html=1;outlineConnect=0;" parent="1" vertex="1">
          <mxGeometry x="40" y="340" width="70" height="120" as="geometry" />
        </mxCell>
        <mxCell id="hFO19jDDCzYTC2dBVx3V-20" value="" style="swimlane;startSize=0;" parent="1" vertex="1">
          <mxGeometry x="240" y="80" width="890" height="610" as="geometry" />
        </mxCell>
        <mxCell id="hFO19jDDCzYTC2dBVx3V-11" value="資產系統" style="rounded=0;whiteSpace=wrap;html=1;" parent="hFO19jDDCzYTC2dBVx3V-20" vertex="1">
          <mxGeometry x="30" y="20" width="110" height="50" as="geometry" />
        </mxCell>
        <mxCell id="hFO19jDDCzYTC2dBVx3V-35" value="" style="swimlane;startSize=0;" parent="hFO19jDDCzYTC2dBVx3V-20" vertex="1">
          <mxGeometry x="30" y="380" width="440" height="200" as="geometry" />
        </mxCell>
        <mxCell id="hFO19jDDCzYTC2dBVx3V-36" value="錢包" style="rounded=0;whiteSpace=wrap;html=1;" parent="hFO19jDDCzYTC2dBVx3V-35" vertex="1">
          <mxGeometry x="20" y="30" width="110" height="50" as="geometry" />
        </mxCell>
        <mxCell id="hFO19jDDCzYTC2dBVx3V-37" value="存款" style="ellipse;whiteSpace=wrap;html=1;" parent="hFO19jDDCzYTC2dBVx3V-35" vertex="1">
          <mxGeometry x="20" y="110" width="120" height="80" as="geometry" />
        </mxCell>
        <mxCell id="hFO19jDDCzYTC2dBVx3V-38" value="提款" style="ellipse;whiteSpace=wrap;html=1;" parent="hFO19jDDCzYTC2dBVx3V-35" vertex="1">
          <mxGeometry x="160" y="110" width="120" height="80" as="geometry" />
        </mxCell>
        <mxCell id="hFO19jDDCzYTC2dBVx3V-39" value="顯示資產" style="ellipse;whiteSpace=wrap;html=1;" parent="hFO19jDDCzYTC2dBVx3V-35" vertex="1">
          <mxGeometry x="310" y="110" width="120" height="80" as="geometry" />
        </mxCell>
        <mxCell id="hFO19jDDCzYTC2dBVx3V-32" value="" style="swimlane;startSize=0;" parent="hFO19jDDCzYTC2dBVx3V-20" vertex="1">
          <mxGeometry x="550" y="380" width="200" height="205" as="geometry" />
        </mxCell>
        <mxCell id="hFO19jDDCzYTC2dBVx3V-34" value="股票錢包" style="rounded=0;whiteSpace=wrap;html=1;" parent="hFO19jDDCzYTC2dBVx3V-32" vertex="1">
          <mxGeometry x="20" y="30" width="110" height="50" as="geometry" />
        </mxCell>
        <mxCell id="hFO19jDDCzYTC2dBVx3V-23" value="顯示資產" style="ellipse;whiteSpace=wrap;html=1;" parent="hFO19jDDCzYTC2dBVx3V-32" vertex="1">
          <mxGeometry x="15" y="110" width="120" height="80" as="geometry" />
        </mxCell>
        <mxCell id="hFO19jDDCzYTC2dBVx3V-18" value="" style="swimlane;startSize=0;" parent="hFO19jDDCzYTC2dBVx3V-20" vertex="1">
          <mxGeometry x="30" y="110" width="470" height="210" as="geometry" />
        </mxCell>
        <mxCell id="hFO19jDDCzYTC2dBVx3V-15" value="創建帳戶" style="ellipse;whiteSpace=wrap;html=1;" parent="hFO19jDDCzYTC2dBVx3V-18" vertex="1">
          <mxGeometry x="20" y="90" width="120" height="80" as="geometry" />
        </mxCell>
        <mxCell id="hFO19jDDCzYTC2dBVx3V-16" value="修改帳戶" style="ellipse;whiteSpace=wrap;html=1;" parent="hFO19jDDCzYTC2dBVx3V-18" vertex="1">
          <mxGeometry x="180" y="90" width="120" height="80" as="geometry" />
        </mxCell>
        <mxCell id="hFO19jDDCzYTC2dBVx3V-17" value="刪除帳戶" style="ellipse;whiteSpace=wrap;html=1;" parent="hFO19jDDCzYTC2dBVx3V-18" vertex="1">
          <mxGeometry x="330" y="90" width="120" height="80" as="geometry" />
        </mxCell>
        <mxCell id="hFO19jDDCzYTC2dBVx3V-7" value="帳戶系統" style="rounded=0;whiteSpace=wrap;html=1;" parent="hFO19jDDCzYTC2dBVx3V-18" vertex="1">
          <mxGeometry x="20" y="10" width="110" height="50" as="geometry" />
        </mxCell>
        <mxCell id="WBAwf-sIYtEU2G0WdNmR-7" style="edgeStyle=orthogonalEdgeStyle;rounded=0;orthogonalLoop=1;jettySize=auto;html=1;exitX=0.5;exitY=1;exitDx=0;exitDy=0;" parent="hFO19jDDCzYTC2dBVx3V-20" source="hFO19jDDCzYTC2dBVx3V-18" target="hFO19jDDCzYTC2dBVx3V-18" edge="1">
          <mxGeometry relative="1" as="geometry" />
        </mxCell>
        <mxCell id="hFO19jDDCzYTC2dBVx3V-26" value="" style="swimlane;startSize=0;" parent="1" vertex="1">
          <mxGeometry x="690" y="1080" width="440" height="210" as="geometry" />
        </mxCell>
        <mxCell id="hFO19jDDCzYTC2dBVx3V-13" value="股票系統" style="rounded=0;whiteSpace=wrap;html=1;" parent="hFO19jDDCzYTC2dBVx3V-26" vertex="1">
          <mxGeometry x="20" y="30" width="110" height="50" as="geometry" />
        </mxCell>
        <mxCell id="hFO19jDDCzYTC2dBVx3V-29" value="下載股票資料" style="ellipse;whiteSpace=wrap;html=1;" parent="hFO19jDDCzYTC2dBVx3V-26" vertex="1">
          <mxGeometry x="30" y="100" width="120" height="80" as="geometry" />
        </mxCell>
        <mxCell id="hFO19jDDCzYTC2dBVx3V-30" value="管理股票" style="ellipse;whiteSpace=wrap;html=1;" parent="hFO19jDDCzYTC2dBVx3V-26" vertex="1">
          <mxGeometry x="170" y="100" width="120" height="80" as="geometry" />
        </mxCell>
        <mxCell id="hFO19jDDCzYTC2dBVx3V-31" value="股票排行" style="ellipse;whiteSpace=wrap;html=1;" parent="hFO19jDDCzYTC2dBVx3V-26" vertex="1">
          <mxGeometry x="310" y="100" width="120" height="80" as="geometry" />
        </mxCell>
        <mxCell id="hFO19jDDCzYTC2dBVx3V-42" value="" style="swimlane;startSize=0;" parent="1" vertex="1">
          <mxGeometry x="550" y="790" width="240" height="210" as="geometry" />
        </mxCell>
        <mxCell id="hFO19jDDCzYTC2dBVx3V-12" value="交易系統" style="rounded=0;whiteSpace=wrap;html=1;" parent="hFO19jDDCzYTC2dBVx3V-42" vertex="1">
          <mxGeometry x="40" y="30" width="110" height="50" as="geometry" />
        </mxCell>
        <mxCell id="hFO19jDDCzYTC2dBVx3V-43" value="交易" style="ellipse;whiteSpace=wrap;html=1;" parent="hFO19jDDCzYTC2dBVx3V-42" vertex="1">
          <mxGeometry x="35" y="100" width="120" height="80" as="geometry" />
        </mxCell>
        <mxCell id="WBAwf-sIYtEU2G0WdNmR-8" value="" style="swimlane;startSize=0;" parent="1" vertex="1">
          <mxGeometry x="240" y="1090" width="200" height="210" as="geometry" />
        </mxCell>
        <mxCell id="WBAwf-sIYtEU2G0WdNmR-9" value="匯率系統" style="rounded=0;whiteSpace=wrap;html=1;" parent="WBAwf-sIYtEU2G0WdNmR-8" vertex="1">
          <mxGeometry x="20" y="30" width="110" height="50" as="geometry" />
        </mxCell>
        <mxCell id="WBAwf-sIYtEU2G0WdNmR-10" value="匯率資料" style="ellipse;whiteSpace=wrap;html=1;" parent="WBAwf-sIYtEU2G0WdNmR-8" vertex="1">
          <mxGeometry x="30" y="100" width="120" height="80" as="geometry" />
        </mxCell>
        <mxCell id="_6RAsYShdg9tU-YcqhcJ-2" value="" style="endArrow=classic;startArrow=classic;html=1;rounded=0;entryX=0.441;entryY=1.025;entryDx=0;entryDy=0;entryPerimeter=0;exitX=0.4;exitY=0;exitDx=0;exitDy=0;exitPerimeter=0;" parent="1" source="hFO19jDDCzYTC2dBVx3V-42" target="hFO19jDDCzYTC2dBVx3V-35" edge="1">
          <mxGeometry width="50" height="50" relative="1" as="geometry">
            <mxPoint x="700" y="850" as="sourcePoint" />
            <mxPoint x="750" y="800" as="targetPoint" />
          </mxGeometry>
        </mxCell>
        <mxCell id="_6RAsYShdg9tU-YcqhcJ-3" value="" style="endArrow=classic;startArrow=classic;html=1;rounded=0;exitX=0.75;exitY=0;exitDx=0;exitDy=0;" parent="1" source="hFO19jDDCzYTC2dBVx3V-42" target="hFO19jDDCzYTC2dBVx3V-32" edge="1">
          <mxGeometry width="50" height="50" relative="1" as="geometry">
            <mxPoint x="700" y="850" as="sourcePoint" />
            <mxPoint x="750" y="800" as="targetPoint" />
          </mxGeometry>
        </mxCell>
        <mxCell id="_6RAsYShdg9tU-YcqhcJ-4" value="" style="endArrow=classic;startArrow=classic;html=1;rounded=0;entryX=0.335;entryY=0.995;entryDx=0;entryDy=0;entryPerimeter=0;exitX=0.69;exitY=0.005;exitDx=0;exitDy=0;exitPerimeter=0;" parent="1" source="WBAwf-sIYtEU2G0WdNmR-8" target="hFO19jDDCzYTC2dBVx3V-42" edge="1">
          <mxGeometry width="50" height="50" relative="1" as="geometry">
            <mxPoint x="700" y="1050" as="sourcePoint" />
            <mxPoint x="750" y="1000" as="targetPoint" />
          </mxGeometry>
        </mxCell>
        <mxCell id="_6RAsYShdg9tU-YcqhcJ-5" value="" style="endArrow=classic;startArrow=classic;html=1;rounded=0;entryX=0.75;entryY=1;entryDx=0;entryDy=0;exitX=0.225;exitY=0;exitDx=0;exitDy=0;exitPerimeter=0;" parent="1" source="hFO19jDDCzYTC2dBVx3V-26" target="hFO19jDDCzYTC2dBVx3V-42" edge="1">
          <mxGeometry width="50" height="50" relative="1" as="geometry">
            <mxPoint x="700" y="1050" as="sourcePoint" />
            <mxPoint x="750" y="1000" as="targetPoint" />
          </mxGeometry>
        </mxCell>
      </root>
    </mxGraphModel>
  </diagram>
</mxfile>
